<svg width="40" height="40" viewBox="0 0 40 40" fill="none" xmlns="http://www.w3.org/2000/svg">
<path d="M39.405 8.22833C38.0133 8.845 36.5183 9.26166 34.9466 9.45C36.5683 8.47965 37.7816 6.95244 38.36 5.15333C36.8364 6.05831 35.1689 6.69532 33.43 7.03666C32.2606 5.7881 30.7117 4.96054 29.0239 4.68245C27.336 4.40437 25.6035 4.69132 24.0954 5.49875C22.5873 6.30619 21.3879 7.58893 20.6836 9.14784C19.9792 10.7067 19.8092 12.4546 20.2 14.12C17.1128 13.965 14.0927 13.1626 11.3357 11.7648C8.57868 10.3671 6.14638 8.40527 4.19665 6.00666C3.52998 7.15666 3.14665 8.49 3.14665 9.91C3.1459 11.1883 3.4607 12.4471 4.06311 13.5746C4.66552 14.702 5.53691 15.6634 6.59998 16.3733C5.36711 16.3341 4.16143 16.001 3.08331 15.4017V15.5017C3.08319 17.2946 3.70337 19.0323 4.83862 20.42C5.97387 21.8077 7.55426 22.7599 9.31165 23.115C8.16795 23.4245 6.96887 23.4701 5.80498 23.2483C6.30081 24.791 7.26664 26.14 8.56726 27.1065C9.86788 28.073 11.4382 28.6086 13.0583 28.6383C10.308 30.7974 6.91146 31.9685 3.41498 31.9633C2.79561 31.9635 2.17677 31.9273 1.56165 31.855C5.11077 34.137 9.24221 35.348 13.4616 35.3433C27.745 35.3433 35.5533 23.5133 35.5533 13.2533C35.5533 12.92 35.545 12.5833 35.53 12.25C37.0488 11.1516 38.3598 9.79149 39.4016 8.23333L39.405 8.22833V8.22833Z" fill="#1D9BF0"/>
</svg>
